<svg version="1.1" id="Layer_1" xmlns="http://www.w3.org/2000/svg" xmlns:xlink="http://www.w3.org/1999/xlink" x="0px" y="0px"
	 width="100%" viewBox="0 0 326 326" enable-background="new 0 0 326 326" xml:space="preserve">
<path fill="#14133B" opacity="1.000000" stroke="none" 
	d="
M240.000000,327.000000 
	C160.000015,327.000000 80.500031,327.000000 1.000032,327.000000 
	C1.000021,218.333374 1.000021,109.666733 1.000011,1.000076 
	C109.666618,1.000051 218.333237,1.000051 326.999878,1.000025 
	C326.999939,109.666595 326.999939,218.333191 326.999969,326.999878 
	C298.166656,327.000000 269.333344,327.000000 240.000000,327.000000 
M303.305634,187.481522 
	C303.305634,169.730209 303.305634,151.978897 303.305634,133.925751 
	C295.228882,133.925751 287.751465,133.783005 280.290588,134.070496 
	C279.089325,134.116776 277.377777,135.868942 276.896667,137.193741 
	C274.061584,145.000076 271.537476,152.918915 268.874786,160.788406 
	C267.299255,165.444733 265.661438,170.079956 263.732025,175.646820 
	C259.045380,161.040695 254.706818,147.519440 250.441345,134.225891 
	C241.334549,134.225891 232.751404,134.225891 224.207153,134.225891 
	C224.207153,155.262909 224.207153,175.996033 224.207153,196.626038 
	C229.714035,196.626038 234.926071,196.626038 240.191040,196.626038 
	C240.191040,181.177750 240.191040,166.106033 240.191040,151.034302 
	C240.393982,150.988342 240.596924,150.942383 240.799881,150.896423 
	C245.656601,166.150452 250.513336,181.404465 255.418091,196.809372 
	C260.604218,196.809372 265.705627,196.809372 270.975281,196.809372 
	C276.087006,181.476425 281.158997,166.262558 286.231018,151.048676 
	C286.479706,151.085068 286.728394,151.121445 286.977081,151.157822 
	C286.977081,166.315353 286.977081,181.472870 286.977081,196.716812 
	C292.627106,196.716812 297.864990,196.716812 303.306976,196.716812 
	C303.306976,193.780045 303.306976,191.128540 303.305634,187.481522 
M128.792694,182.931030 
	C130.294724,187.615707 131.796753,192.300385 133.253601,196.844131 
	C139.242996,196.844131 144.720718,196.844131 151.138260,196.844131 
	C146.809555,185.920273 142.658173,175.443909 138.479965,164.899811 
	C145.274643,161.743668 148.726044,156.066544 147.827942,148.166901 
	C147.011841,140.988495 142.497192,135.456390 133.948532,134.769073 
	C121.969582,133.805923 109.855309,134.525940 97.825089,134.525940 
	C97.825089,155.319244 97.825089,176.041382 97.825089,196.706085 
	C103.445335,196.706085 108.696014,196.706085 114.234161,196.706085 
	C114.234161,188.479980 114.234161,180.520508 114.234161,172.614426 
	C122.588196,171.210815 124.822739,172.758423 128.792694,182.931030 
M56.487976,133.918976 
	C45.885761,133.918976 35.283543,133.918976 24.576851,133.918976 
	C24.576851,155.233902 24.576851,175.966537 24.576851,196.710739 
	C39.786140,196.710739 54.693199,196.710739 69.577705,196.710739 
	C69.577705,192.678864 69.577705,188.952759 69.577705,184.820465 
	C60.006908,184.820465 50.753262,184.820465 41.481445,184.820465 
	C41.481445,179.998398 41.481445,175.598129 41.481445,170.728577 
	C50.175549,170.728577 58.566803,170.728577 66.892090,170.728577 
	C66.892090,166.521805 66.892090,162.799591 66.892090,158.570038 
	C58.147545,158.570038 49.745453,158.570038 41.477482,158.570038 
	C41.477482,154.110275 41.477482,150.182068 41.477482,145.847717 
	C50.693211,145.847717 59.617012,145.847717 68.666557,145.847717 
	C68.666557,141.697296 68.666557,137.969376 68.666557,133.918320 
	C64.755165,133.918320 61.118237,133.918320 56.487976,133.918976 
M193.662476,192.273041 
	C193.662476,180.270554 193.662476,168.268082 193.662476,156.764084 
	C187.951859,158.162735 182.800247,159.424469 177.251328,160.783524 
	C177.251328,166.349731 177.251328,172.469635 177.251328,178.589523 
	C177.251328,184.673325 177.251328,190.757111 177.251328,197.062469 
	C182.063034,197.062469 186.218353,196.863617 190.344284,197.126266 
	C193.562286,197.331116 193.930176,195.682831 193.662476,192.273041 
M192.995575,134.240082 
	C187.918121,134.240082 182.840668,134.240082 177.661484,134.240082 
	C177.661484,140.845886 177.661484,147.199738 177.661484,153.490692 
	C188.786652,154.801102 193.691803,150.698547 193.685974,140.471512 
	C193.684921,138.646713 193.574997,136.821976 192.995575,134.240082 
z"/>
<path fill="#FDFDFD" opacity="1.000000" stroke="none" 
	d="
M303.306305,187.979279 
	C303.306976,191.128540 303.306976,193.780045 303.306976,196.716812 
	C297.864990,196.716812 292.627106,196.716812 286.977081,196.716812 
	C286.977081,181.472870 286.977081,166.315353 286.977081,151.157822 
	C286.728394,151.121445 286.479706,151.085068 286.231018,151.048676 
	C281.158997,166.262558 276.087006,181.476425 270.975281,196.809372 
	C265.705627,196.809372 260.604218,196.809372 255.418091,196.809372 
	C250.513336,181.404465 245.656601,166.150452 240.799881,150.896423 
	C240.596924,150.942383 240.393982,150.988342 240.191040,151.034302 
	C240.191040,166.106033 240.191040,181.177750 240.191040,196.626038 
	C234.926071,196.626038 229.714035,196.626038 224.207153,196.626038 
	C224.207153,175.996033 224.207153,155.262909 224.207153,134.225891 
	C232.751404,134.225891 241.334549,134.225891 250.441345,134.225891 
	C254.706818,147.519440 259.045380,161.040695 263.732025,175.646820 
	C265.661438,170.079956 267.299255,165.444733 268.874786,160.788406 
	C271.537476,152.918915 274.061584,145.000076 276.896667,137.193741 
	C277.377777,135.868942 279.089325,134.116776 280.290588,134.070496 
	C287.751465,133.783005 295.228882,133.925751 303.305634,133.925751 
	C303.305634,151.978897 303.305634,169.730209 303.306305,187.979279 
z"/>
<path fill="#FAFAFA" opacity="1.000000" stroke="none" 
	d="
M128.630859,182.575806 
	C124.822739,172.758423 122.588196,171.210815 114.234161,172.614426 
	C114.234161,180.520508 114.234161,188.479980 114.234161,196.706085 
	C108.696014,196.706085 103.445335,196.706085 97.825089,196.706085 
	C97.825089,176.041382 97.825089,155.319244 97.825089,134.525940 
	C109.855309,134.525940 121.969582,133.805923 133.948532,134.769073 
	C142.497192,135.456390 147.011841,140.988495 147.827942,148.166901 
	C148.726044,156.066544 145.274643,161.743668 138.479965,164.899811 
	C142.658173,175.443909 146.809555,185.920273 151.138260,196.844131 
	C144.720718,196.844131 139.242996,196.844131 133.253601,196.844131 
	C131.796753,192.300385 130.294724,187.615707 128.630859,182.575806 
M114.232254,158.145462 
	C117.967331,162.238220 122.479958,160.108887 126.297974,158.901215 
	C128.298126,158.268555 130.526413,154.985397 130.641602,152.793579 
	C130.740143,150.918396 128.337219,147.829971 126.393845,147.163071 
	C122.774506,145.921051 118.684776,146.049835 114.222008,145.543518 
	C114.222008,149.965256 114.222008,153.589813 114.232254,158.145462 
z"/>
<path fill="#FBFBFB" opacity="1.000000" stroke="none" 
	d="
M56.984642,133.918640 
	C61.118237,133.918320 64.755165,133.918320 68.666557,133.918320 
	C68.666557,137.969376 68.666557,141.697296 68.666557,145.847717 
	C59.617012,145.847717 50.693211,145.847717 41.477482,145.847717 
	C41.477482,150.182068 41.477482,154.110275 41.477482,158.570038 
	C49.745453,158.570038 58.147545,158.570038 66.892090,158.570038 
	C66.892090,162.799591 66.892090,166.521805 66.892090,170.728577 
	C58.566803,170.728577 50.175549,170.728577 41.481445,170.728577 
	C41.481445,175.598129 41.481445,179.998398 41.481445,184.820465 
	C50.753262,184.820465 60.006908,184.820465 69.577705,184.820465 
	C69.577705,188.952759 69.577705,192.678864 69.577705,196.710739 
	C54.693199,196.710739 39.786140,196.710739 24.576851,196.710739 
	C24.576851,175.966537 24.576851,155.233902 24.576851,133.918976 
	C35.283543,133.918976 45.885761,133.918976 56.984642,133.918640 
z"/>
<path fill="#F3F3F5" opacity="1.000000" stroke="none" 
	d="
M193.663177,192.745804 
	C193.930176,195.682831 193.562286,197.331116 190.344284,197.126266 
	C186.218353,196.863617 182.063034,197.062469 177.251328,197.062469 
	C177.251328,190.757111 177.251328,184.673325 177.251328,178.589523 
	C177.251328,172.469635 177.251328,166.349731 177.251328,160.783524 
	C182.800247,159.424469 187.951859,158.162735 193.662476,156.764084 
	C193.662476,168.268082 193.662476,180.270554 193.663177,192.745804 
z"/>
<path fill="#CC9538" opacity="1.000000" stroke="none" 
	d="
M193.255463,134.618652 
	C193.574997,136.821976 193.684921,138.646713 193.685974,140.471512 
	C193.691803,150.698547 188.786652,154.801102 177.661484,153.490692 
	C177.661484,147.199738 177.661484,140.845886 177.661484,134.240082 
	C182.840668,134.240082 187.918121,134.240082 193.255463,134.618652 
z"/>
<path fill="#1D1B42" opacity="1.000000" stroke="none" 
	d="
M114.227127,157.679901 
	C114.222008,153.589813 114.222008,149.965256 114.222008,145.543518 
	C118.684776,146.049835 122.774506,145.921051 126.393845,147.163071 
	C128.337219,147.829971 130.740143,150.918396 130.641602,152.793579 
	C130.526413,154.985397 128.298126,158.268555 126.297974,158.901215 
	C122.479958,160.108887 117.967331,162.238220 114.227127,157.679901 
z"/>
</svg>